<svg width="105" height="105" viewBox="0 0 105 105" fill="none" xmlns="http://www.w3.org/2000/svg">
<path d="M19.6875 73.8281C19.6875 78.3398 22.6324 82.0312 26.25 82.0312C27.0418 82.0135 27.8217 81.8349 28.5423 81.5063C29.2629 81.1778 29.9092 80.7061 30.4418 80.1199C31.0463 79.5042 31.8691 79.1514 32.7319 79.1379C33.5947 79.1244 34.428 79.4513 35.0515 80.0478C35.675 80.6444 36.0384 81.4625 36.0631 82.325C36.0877 83.1876 35.7716 84.0251 35.1832 84.6562C34.0407 85.8861 32.659 86.8698 31.1229 87.5468C29.5868 88.2239 27.9286 88.5802 26.25 88.5938C19.0107 88.5938 13.125 81.9697 13.125 73.8281C13.125 65.6865 19.0107 59.0625 26.25 59.0625C27.9286 59.0761 29.5868 59.4323 31.1229 60.1094C32.659 60.7865 34.0407 61.7701 35.1832 63C35.7716 63.6312 36.0877 64.4687 36.0631 65.3312C36.0384 66.1938 35.675 67.0119 35.0515 67.6084C34.428 68.2049 33.5947 68.5318 32.7319 68.5184C31.8691 68.5049 31.0463 68.1521 30.4418 67.5363C29.9092 66.9502 29.2629 66.4785 28.5423 66.1499C27.8217 65.8213 27.0418 65.6427 26.25 65.625C22.6324 65.625 19.6875 69.3164 19.6875 73.8281ZM52.3359 70.2639C50.6953 69.7881 48.9973 69.3 48.0498 68.6889C47.5371 68.3566 47.5453 68.2787 47.5904 67.9096C47.5976 67.6115 47.6758 67.3195 47.8184 67.0577C47.9611 66.7959 48.1642 66.5719 48.4107 66.4043C50.2975 65.1246 54.7025 65.6947 56.54 66.1746C57.382 66.4003 58.2791 66.2823 59.0341 65.8466C59.7891 65.4108 60.34 64.693 60.5657 63.8511C60.7914 63.0091 60.6734 62.112 60.2377 61.357C59.802 60.6021 59.0841 60.0511 58.2422 59.8254C57.3727 59.5998 49.6289 57.6844 44.7727 60.9574C43.7457 61.6466 42.8828 62.5531 42.2449 63.6127C41.607 64.6723 41.2098 65.8592 41.0813 67.0893C40.2609 73.6025 46.6799 75.4605 50.5148 76.568C55.4613 77.9994 55.8961 78.5859 55.7566 79.6811C55.6295 80.6695 55.2398 81.051 54.8789 81.293C52.9922 82.548 48.6568 81.9328 46.8604 81.4406C46.0206 81.2062 45.1221 81.315 44.3625 81.743C43.6029 82.1711 43.0445 82.8834 42.8101 83.7231C42.5756 84.5629 42.6844 85.4614 43.1125 86.221C43.5405 86.9806 44.2528 87.539 45.0926 87.7734C47.1269 88.3062 49.22 88.5818 51.3228 88.5938C53.71 88.5938 56.3678 88.1836 58.4965 86.7645C59.5472 86.0663 60.4301 85.144 61.0818 84.0639C61.7336 82.9838 62.1379 81.7728 62.2658 80.5178C63.1641 73.418 56.3924 71.4369 52.3359 70.2639ZM86.4158 59.2553C86.01 59.11 85.5795 59.0461 85.1489 59.0672C84.7184 59.0884 84.2962 59.1941 83.9066 59.3785C83.5169 59.5628 83.1674 59.8222 82.878 60.1416C82.5886 60.4611 82.365 60.8345 82.2199 61.2404L77.1094 75.5549L71.9947 61.2404C71.7021 60.4208 71.0959 59.7509 70.3094 59.3783C69.5229 59.0056 68.6205 58.9606 67.8009 59.2532C66.9812 59.5458 66.3114 60.1521 65.9387 60.9386C65.566 61.7251 65.5211 62.6274 65.8137 63.4471L74.0168 86.4158C74.2442 87.0535 74.6633 87.6051 75.2166 87.9952C75.7699 88.3853 76.4303 88.5947 77.1073 88.5947C77.7843 88.5947 78.4447 88.3853 78.998 87.9952C79.5513 87.6051 79.9704 87.0535 80.1979 86.4158L88.401 63.4471C88.6931 62.6279 88.6482 61.7263 88.2759 60.9403C87.9037 60.1543 87.2347 59.5483 86.4158 59.2553ZM88.5938 36.0938V45.9375C88.5938 46.8077 88.248 47.6423 87.6327 48.2577C87.0173 48.873 86.1827 49.2188 85.3125 49.2188C84.4423 49.2188 83.6077 48.873 82.9923 48.2577C82.377 47.6423 82.0312 46.8077 82.0312 45.9375V39.375H62.3438C61.4735 39.375 60.6389 39.0293 60.0236 38.4139C59.4082 37.7986 59.0625 36.964 59.0625 36.0938V16.4063H22.9688V45.9375C22.9688 46.8077 22.623 47.6423 22.0077 48.2577C21.3923 48.873 20.5577 49.2188 19.6875 49.2188C18.8173 49.2188 17.9827 48.873 17.3673 48.2577C16.752 47.6423 16.4062 46.8077 16.4062 45.9375V16.4063C16.4062 14.6658 17.0977 12.9966 18.3284 11.7659C19.5591 10.5352 21.2283 9.84375 22.9688 9.84375H62.3438C62.7748 9.84341 63.2017 9.928 63.6 10.0927C63.9983 10.2574 64.3603 10.4989 64.6652 10.8035L87.634 33.7723C87.9386 34.0772 88.1801 34.4392 88.3448 34.8375C88.5095 35.2359 88.5941 35.6627 88.5938 36.0938ZM77.3924 32.8125L65.625 21.0451V32.8125H77.3924Z" fill="#4DDA6C"/>
</svg>
